<svg width="500" height="500" xmlns="http://www.w3.org/2000/svg" version="1.1">

 <g>
  <title>Layer 1</title>
  <path id="svg_5" fill="#FFFFFF"/>
  <path id="svg_6" fill="#FFFFFF"/>
  <path id="svg_7" fill="#FFFFFF"/>
  <path id="svg_8" fill="#FFFFFF"/>
  <path id="svg_9" fill="#FFFFFF"/>
  <path id="svg_10" fill="#FFFFFF"/>
  <path id="svg_11" fill="#FFFFFF"/>
  <path id="svg_12" fill="#FFFFFF"/>
  <path id="svg_13" fill="#FFFFFF"/>
  <path id="svg_14" fill="#FFFFFF"/>
  <path id="svg_15" fill="#FFFFFF"/>
  <path id="svg_16" fill="#FFFFFF"/>
  <path id="svg_17" fill="#FFFFFF"/>
  <path id="svg_18" fill="#FFFFFF"/>
  <path id="svg_19" fill="#FFFFFF"/>
  <path id="svg_20" fill="#FFFFFF"/>
  <path id="svg_21" fill="#FFFFFF"/>
  <path id="svg_22" fill="#FFFFFF"/>
  <path id="svg_23" fill="#FFFFFF"/>
  <path id="svg_24" fill="#FFFFFF"/>
  <path id="svg_25" fill="#FFFFFF"/>
  <path id="svg_26" fill="#FFFFFF"/>
  <path id="svg_27" fill="#FFFFFF"/>
  <path id="svg_28" fill="#FFFFFF"/>
  <path id="svg_29" fill="#FFFFFF"/>
  <path id="svg_30" fill="#FFFFFF"/>
  <path id="svg_31" fill="#FFFFFF"/>
  <path id="svg_32" fill="#FFFFFF"/>
  <path id="svg_33" fill="#FFFFFF"/>
  <path id="svg_34" fill="#FFFFFF"/>
  <path id="svg_35" fill="#FFFFFF"/>
  <path id="svg_36" fill="#FFFFFF"/>
  <path id="svg_37" fill="#FFFFFF"/>
  <path id="svg_38" fill="#FFFFFF"/>
  <path id="svg_39" fill="#FFFFFF"/>
  <path id="svg_40" fill="#FFFFFF"/>
  <path id="svg_41" fill="#FFFFFF"/>
  <path id="svg_42" fill="#FFFFFF"/>
  <path id="svg_43" fill="#FFFFFF"/>
  <path id="svg_44" fill="#FFFFFF"/>
  <path id="svg_45" fill="#FFFFFF"/>
  <path id="svg_46" fill="#FFFFFF"/>
  <path id="svg_47" fill="#FFFFFF"/>
  <path id="svg_48" fill="#FFFFFF"/>
  <path id="svg_49" fill="#FFFFFF"/>
  <path id="svg_50" fill="#FFFFFF"/>
  <path id="svg_51" fill="#FFFFFF"/>
  <path id="svg_52" fill="#FFFFFF"/>
  <path id="svg_53" fill="#FFFFFF"/>
  <path id="svg_54" fill="#FFFFFF"/>
  <path id="svg_55" fill="#FFFFFF"/>
  <path id="svg_56" fill="#FFFFFF"/>
  <path id="svg_57" fill="#FFFFFF"/>
  <path id="svg_58" fill="#FFFFFF"/>
  <path id="svg_59" fill="#FFFFFF"/>
  <path id="svg_60" fill="#FFFFFF"/>
  <path id="svg_61" fill="#FFFFFF"/>
  <g stroke="null" id="svg_62">
   <path stroke="null" stroke-width="0" id="svg_1" fill="#ffffff" d="m236.50007,9.50429c1.05285,-0.01009 2.1057,-0.02017 3.19044,-0.03056c44.07224,-0.32637 44.07224,-0.32637 64.01697,4.60703c1.17779,0.28385 2.35559,0.56771 3.56908,0.86018c47.12396,11.66269 85.28178,34.81786 119.37552,69.1486c1.17635,1.13767 1.17635,1.13767 2.37648,2.29835c5.89714,5.74842 11.11013,11.7287 16.02947,18.32924c0.73368,0.98211 1.46734,1.96422 2.22325,2.97609c6.87626,9.40095 12.6463,19.25864 18.05065,29.56216c1.19668,2.26754 2.44198,4.50932 3.69403,6.7468c14.60795,27.08568 23.40635,61.0845 23.72782,91.85303c0.01394,1.10635 0.02788,2.21269 0.04223,3.35256c0.24091,24.08132 0.05504,47.17297 -6.10123,70.62435c-0.26768,1.07765 -0.53534,2.1553 -0.81112,3.26561c-7.64988,30.41654 -22.07649,58.72152 -40.64694,83.88817c-0.809,1.13083 -1.61801,2.26165 -2.45152,3.42676c-36.14418,48.00017 -94.38198,82.3884 -153.90518,91.19377c-29.2812,3.48614 -62.2549,3.96074 -90.96209,-3.1805c-1.0002,-0.24519 -2.00039,-0.49038 -3.0309,-0.74298c-42.32699,-10.73383 -80.85676,-30.84719 -112.09355,-61.50047c-2.01805,-1.96865 -4.07794,-3.8942 -6.13927,-5.81754c-17.47822,-16.67058 -30.73746,-36.24929 -41.70935,-57.66906c-0.68209,-1.32227 -0.68209,-1.32227 -1.37794,-2.67123c-14.49345,-28.47803 -24.35788,-61.23508 -24.6953,-93.32294c-0.01414,-1.102 -0.02826,-2.20398 -0.04283,-3.33935c-0.46939,-46.15971 5.92254,-88.44219 28.97524,-129.26656c0.74289,-1.34298 0.74289,-1.34298 1.50078,-2.7131c21.94677,-39.40275 54.97948,-71.1402 94.28164,-93.01319c1.55166,-0.86562 3.10332,-1.73125 4.702,-2.6231c30.03166,-15.83081 64.10666,-26.02342 98.2116,-26.24213zm-121.49825,71.72775c0,0.94296 0,1.88595 0,2.8575c-0.78689,0.33518 -1.57378,0.67038 -2.38451,1.01574c-34.79659,19.22302 -59.0226,67.82983 -70.2355,104.11671c-10.37813,36.16548 -11.63705,73.95991 -3.14817,110.60888c0.37963,1.72203 0.75924,3.44406 1.15038,5.21828c5.1871,21.49322 14.11167,41.88401 26.0118,60.50424c2.51435,-3.76933 3.53471,-5.97529 4.7034,-10.20184c0.33667,-1.20078 0.67334,-2.40157 1.02021,-3.63876c0.35946,-1.30962 0.71891,-2.61926 1.08926,-3.96857c0.79851,-2.85144 1.59744,-5.70279 2.39673,-8.55402c0.42044,-1.50925 0.84087,-3.01848 1.27405,-4.57346c14.05388,-50.32857 29.21528,-100.34546 48.12946,-149.08593c0.61966,-1.60786 1.2393,-3.2157 1.87774,-4.87227c18.90685,-48.72901 41.19916,-103.9172 79.6088,-140.86028c-29.87272,0 -69.61298,22.11406 -91.49365,41.43376zm110.0783,-25.71751c-1.13702,0.85088 -2.27405,1.70177 -3.44554,2.57844c-32.88345,27.85772 -51.71116,78.6647 -67.57597,117.15197c-1.72145,4.16878 -3.47609,8.32189 -5.2381,12.47366c-0.94103,2.27589 -1.87944,4.55287 -2.8145,6.83121c-0.63527,1.483 -0.63527,1.483 -1.28336,2.99598c-4.37328,10.97548 -1.03123,18.97621 3.38814,29.2782c0.95115,2.16643 0.95115,2.16643 1.92151,4.37662c0.66572,1.54299 1.33143,3.08597 2.01732,4.67573c1.82204,4.21759 3.6546,8.43041 5.49161,12.6415c1.95044,4.4788 3.88658,8.96377 5.82367,13.44834c2.82652,6.54095 5.65684,13.08024 8.49216,19.61739c7.08228,16.33059 14.09295,32.69165 21.09868,49.05516c3.51783,8.2147 7.04082,16.4272 10.56329,24.63993c1.42473,3.32234 2.84943,6.6447 4.2741,9.96706c0.71914,1.677 1.43828,3.35401 2.17921,5.08182c20.42018,47.61918 20.42018,47.61918 40.84038,95.23838c0.94353,0 1.88706,0 2.85918,0c0.41325,-0.99007 0.8265,-1.98012 1.25229,-3.00018c13.90192,-33.27801 28.02494,-66.46082 42.17005,-99.63616c5.51219,-12.92891 11.01789,-25.86056 16.52355,-38.79222c1.78503,-4.19258 3.57025,-8.38508 5.35551,-12.57758c5.79116,-13.60065 11.57977,-27.2024 17.36342,-40.80624c0.55347,-1.30181 1.10694,-2.60361 1.67719,-3.94487c2.59695,-6.10844 5.19347,-12.21707 7.78928,-18.32598c0.46773,-1.09894 0.93545,-2.19786 1.41735,-3.33009c0.90311,-2.12758 1.80182,-4.25705 2.6957,-6.38852c2.06197,-4.90003 4.1839,-9.74066 6.5087,-14.52238c5.71482,-11.65025 5.71482,-11.65025 4.32017,-24.11155c-0.63544,-1.56883 -0.63544,-1.56883 -1.2837,-3.16934c-0.84725,-2.58767 -1.69419,-5.17542 -2.54086,-7.76326c-1.01732,-2.86366 -2.04737,-5.72285 -3.08814,-8.57808c-0.56437,-1.54984 -1.12873,-3.09967 -1.7102,-4.69646c-26.02238,-74.35903 -26.02238,-74.35903 -78.43609,-130.40976c-18.68765,-8.51295 -33.57055,-2.44318 -48.606,10.00125zm82.91612,-12.85875c1.12044,1.4734 2.24088,2.9468 3.39527,4.46485c1.18586,1.59679 1.18586,1.59679 2.39568,3.22585c1.93779,2.60033 3.90183,5.18125 5.88589,7.7465c28.91341,38.56006 45.9078,85.05072 61.23217,130.29536c0.56276,1.64468 1.1255,3.28936 1.70531,4.98388c19.81029,58.23809 34.38104,118.03744 48.33028,177.89618c31.57512,-38.64017 40.42041,-95.10822 35.8842,-143.38119c-6.07516,-55.27013 -33.80898,-108.62444 -77.34226,-143.79767c-1.94879,-1.62443 -1.94879,-1.62443 -3.93696,-3.28167c-19.19451,-15.63947 -52.03779,-38.1521 -77.54958,-38.1521zm-180.12813,204.31132c-11.15471,32.0531 -20.69626,64.53183 -30.02136,97.15503c-0.31532,1.10038 -0.63065,2.20076 -0.95554,3.3345c-1.9651,6.86016 -3.90792,13.72613 -5.83501,20.59707c-0.47926,1.68957 -0.9585,3.37914 -1.45228,5.11991c-0.42742,1.54454 -0.85484,3.08907 -1.29522,4.68042c-0.36995,1.32559 -0.73988,2.6512 -1.12105,4.01696c-0.7991,3.78669 -1.11249,6.97326 -0.77761,10.82866c2.71307,3.94827 2.71307,3.94827 6.43315,7.67953c0.98632,1.03736 0.98632,1.03736 1.99256,2.09568c32.1594,33.41772 80.25197,60.81175 127.38518,63.09107c-0.8834,-5.19572 -2.31407,-9.67148 -4.40114,-14.50588c-0.61844,-1.44188 -1.23688,-2.88376 -1.87405,-4.36933c-0.67501,-1.55441 -1.35,-3.10883 -2.04545,-4.71035c-0.7011,-1.62952 -1.40218,-3.25904 -2.12451,-4.93795c-1.89635,-4.40438 -3.7987,-8.80609 -5.70371,-13.20674c-1.98757,-4.59553 -3.96714,-9.19451 -5.94727,-13.79326c-3.13503,-7.27886 -6.27378,-14.55608 -9.41553,-21.83204c-4.68894,-10.86168 -9.35487,-21.73308 -14.01112,-32.60877c-1.20885,-2.8223 -2.41922,-5.64395 -3.63013,-8.46538c-4.59335,-10.70321 -9.17693,-21.41054 -13.752,-32.12157c-2.74195,-6.41796 -5.48666,-12.83474 -8.23163,-19.2514c-1.34684,-3.15028 -2.69243,-6.3011 -4.03669,-9.45248c-1.88345,-4.41507 -3.77125,-8.82825 -5.65994,-13.24109c-0.55901,-1.31344 -1.11802,-2.62686 -1.69398,-3.98008c-3.22222,-7.51497 -6.66407,-14.84639 -10.3961,-22.12252c-0.47176,0 -0.94353,0 -1.42959,0zm245.88919,0c-11.9835,26.869 -23.51257,53.92296 -34.99628,81.0079c-5.82444,13.73536 -11.67086,27.46136 -17.51793,41.18711c-2.99413,7.02887 -5.98736,14.05813 -8.98043,21.08746c-0.58766,1.38016 -1.17534,2.7603 -1.78081,4.18228c-9.89112,23.23148 -19.76946,46.46841 -29.64779,69.70534c4.58946,1.52892 5.91922,1.36036 10.47062,0.30695c1.83493,-0.42355 1.83493,-0.42355 3.70695,-0.85565c1.3069,-0.31988 2.61382,-0.63978 3.96033,-0.96935c1.34837,-0.32818 2.69675,-0.65635 4.08598,-0.99448c40.5113,-10.18958 75.17284,-31.17835 105.00948,-60.35249c0.81579,-0.78206 1.63159,-1.56411 2.47212,-2.36987c2.73084,-5.02853 1.23887,-9.14183 -0.07085,-14.42912c-0.26735,-1.16515 -0.53468,-2.33029 -0.81012,-3.53076c-0.97419,-4.1856 -1.99525,-8.35818 -3.02073,-12.53151c-0.39845,-1.64693 -0.79691,-3.29386 -1.20744,-4.9907c-3.03199,-12.52054 -6.14813,-25.01882 -9.28848,-37.51254c-1.01266,-4.03715 -2.01781,-8.07616 -3.02319,-12.11512c-5.57843,-22.39309 -11.36873,-44.69613 -17.93183,-66.82543c-0.47176,0 -0.94353,0 -1.42959,0z"/>
   <path stroke="null" stroke-width="0" id="svg_2" fill="#ffffff" d="m279.40447,124.09455c-0.73715,12.08993 -2.10761,23.83845 -4.32506,35.74248c-0.29074,1.60299 -0.58146,3.20599 -0.881,4.85755c-0.95073,5.22818 -1.91502,10.45377 -2.88005,15.67935c-0.66829,3.65369 -1.33589,7.30752 -2.00285,10.96145c-1.39288,7.6194 -2.79196,15.23761 -4.19646,22.85486c-1.62436,8.81006 -3.23789,17.62205 -4.84556,26.43517c-1.55099,8.50158 -3.10848,17.00196 -4.66915,25.50178c-0.66266,3.61147 -1.32383,7.22321 -1.98353,10.83522c-0.91832,5.0217 -1.84397,10.042 -2.77181,15.06195c-0.27334,1.50207 -0.54667,3.00413 -0.82829,4.55173c-0.25251,1.35761 -0.505,2.71524 -0.76516,4.114c-0.21821,1.18621 -0.43642,2.37243 -0.66126,3.59458c-0.64077,2.68995 -0.64077,2.68995 -2.07036,4.1187c-3.33323,0.14157 -6.67089,0.18532 -10.00712,0.17859c-1.82809,0.00369 -3.65617,0.00737 -5.53965,0.01116c-4.46746,-0.18975 -4.46746,-0.18975 -5.89705,-1.6185c0.25184,-11.49911 2.22188,-22.84529 4.30237,-34.12886c0.28843,-1.60049 0.57687,-3.20097 0.87404,-4.84995c0.94477,-5.22891 1.90152,-10.45554 2.85943,-15.68205c0.66459,-3.65237 1.32877,-7.30482 1.99259,-10.95732c1.38727,-7.62186 2.78065,-15.24257 4.17844,-22.86249c1.61572,-8.80872 3.217,-17.61997 4.81138,-26.43256c1.53868,-8.50168 3.08991,-17.001 4.64623,-25.49948c0.65955,-3.60991 1.31556,-7.22046 1.96801,-10.83166c0.90945,-5.02599 1.83313,-10.04915 2.76066,-15.07182c0.4023,-2.24877 0.4023,-2.24877 0.81272,-4.54296c0.25447,-1.36166 0.50893,-2.7233 0.77112,-4.12622c0.32535,-1.78012 0.32535,-1.78012 0.65725,-3.59621c0.81668,-2.86975 0.81668,-2.86975 3.67586,-5.72725c3.20541,-0.69206 3.20541,-0.69206 6.96924,-1.07156c1.23469,-0.13997 2.46939,-0.27995 3.7415,-0.42417c3.94396,0.07368 5.88714,1.07756 9.30349,2.92448z"/>
   <path stroke="null" stroke-width="0" id="svg_3" fill="#ffffff" d="m296.34837,177.07447c5.56499,1.62326 8.06622,3.95418 12.16721,8.02661c1.02383,1.01298 1.02383,1.01298 2.06836,2.04644c1.43219,1.42651 2.85549,2.86202 4.27019,4.30584c2.16035,2.19735 4.3562,4.35396 6.55845,6.50926c1.39186,1.39577 2.78151,2.79376 4.16871,4.19417c1.25554,1.26286 2.51109,2.52573 3.80466,3.82687c3.32195,4.37402 4.29913,6.93207 4.34287,12.40843c-1.6411,2.91367 -1.6411,2.91367 -4.18825,5.49735c-0.92833,0.96715 -1.85665,1.9343 -2.81312,2.93075c-0.99189,0.99062 -1.9838,1.98126 -3.00575,3.0019c-0.944,0.99984 -1.88799,1.99968 -2.86058,3.02982c-2.87983,3.04831 -5.80965,6.04007 -8.75483,9.02526c-0.98592,1.02677 -1.97183,2.05356 -2.98763,3.11145c-0.9638,0.97519 -1.9276,1.9504 -2.92061,2.95516c-1.28571,1.31622 -1.28571,1.31622 -2.5974,2.65903c-3.35473,2.53433 -5.72464,3.17784 -9.90031,3.50804c-5.32006,-2.60634 -7.97602,-4.65138 -10.90061,-9.82266c-0.58276,-4.85335 0.02689,-6.74679 2.94853,-10.60959c3.92556,-4.26656 8.26954,-8.11682 12.62617,-11.93788c2.86377,-3.21693 2.86377,-3.21693 2.62462,-7.53443c-1.97938,-5.4943 -5.18582,-8.62948 -9.44309,-12.42343c-7.44896,-6.75076 -7.44896,-6.75076 -9.22532,-10.73795c-0.11963,-4.74265 2.83712,-7.63526 5.65135,-11.22909c4.28877,-2.8575 4.28877,-2.8575 8.36637,-2.74134z"/>
   <path stroke="null" stroke-width="0" id="svg_4" fill="#ffffff" d="m213.64341,178.38707c4.46762,3.47278 6.84841,5.50529 7.87949,11.14537c-1.16181,7.25931 -6.48897,10.70581 -11.78853,15.28652c-3.73796,3.41556 -5.92813,5.74999 -7.17027,10.71563c1.49441,5.97413 5.14971,8.96914 9.64972,12.85875c8.32764,7.19806 8.32764,7.19806 9.39843,13.08758c-0.92573,4.57557 -1.81059,6.04223 -5.37771,8.96875c-0.84586,0.73486 -1.69172,1.46971 -2.56321,2.22684c-4.03311,2.00368 -5.76108,1.37263 -10.03504,0.00559c-5.2374,-4.16104 -9.8799,-8.93302 -14.58732,-13.67673c-2.29277,-2.30047 -4.62104,-4.56026 -6.95423,-6.8197c-1.4682,-1.46085 -2.93417,-2.92395 -4.39766,-4.38951c-1.33202,-1.32272 -2.66404,-2.64545 -4.03643,-4.00825c-2.90489,-3.96708 -2.90489,-3.96708 -3.78199,-8.25333c1.1482,-5.61116 3.94052,-8.46082 7.9692,-12.26158c0.72303,-0.71388 1.44607,-1.42775 2.19102,-2.16326c2.30677,-2.26703 4.642,-4.50212 6.97845,-6.73853c1.56177,-1.53009 3.12168,-3.06207 4.67967,-4.596c14.21237,-13.90473 14.21237,-13.90473 21.94641,-11.38814z"/>
  </g>
 </g>
</svg>